<svg width="1844" height="1496" viewBox="0 0 1844 1496" fill="none" xmlns="http://www.w3.org/2000/svg">
<path d="M1572.67 4.93347C1571.2 5.33347 1539.07 12.1335 1501.33 20.1335C1441.73 32.8002 1267.73 71.3334 1203.07 86.1334L1181.47 91.0668L1157.73 80.0001C1072.93 40.6668 983.467 16.9335 898 11.3335C891.467 10.9335 881.867 10.2668 876.667 10.0001L867.333 9.3335L884.667 14.0001C939.467 28.6668 989.2 49.6002 1034.4 76.8002C1053.47 88.4002 1084.4 109.467 1086 112C1086.93 113.467 1076.53 115.2 1074.4 113.867C1073.47 113.333 1067.6 109.2 1061.33 104.8C1030.8 83.0668 986.533 59.3335 950 44.9335C919.333 32.9335 875.733 19.8668 850.4 15.3335L845.333 14.4001V91.7335V169.067L842.4 169.867C840.667 170.267 838.933 170.667 838.4 170.667C837.733 170.667 837.333 135.467 837.333 92.5334V14.4001L832.4 15.2002C829.6 15.7335 817.733 18.5335 806 21.3335C741.333 37.2002 681.067 63.8668 625.333 101.467C596.133 121.067 554.533 155.067 556.933 157.467C557.467 158 570.667 162.8 586 168C618 178.8 662.667 190.267 694.667 195.734C718.533 199.867 718.533 199.867 700.667 203.734C687.467 206.534 616.533 189.067 567.333 170.933L547.467 163.6L534.4 177.467C515.733 197.2 490.533 227.333 477.067 246C466.4 260.667 464.933 262.267 459.733 263.6C456.533 264.4 453.867 264.934 453.6 264.8C453.067 264.134 472.933 236.267 484.533 221.467C498.133 204 511.867 188.133 527.2 172.4L539.067 160L533.867 157.867C512.933 149.2 480.4 133.067 462.133 122.4L455.733 118.533L444.8 125.6C370 173.867 302.667 236.667 251.333 306C244.8 314.8 239.333 322.133 239.2 322.4C239.2 322.533 219.6 327.733 195.867 334C116.267 354.533 85.6 365.733 61.8666 382.4C46.8 393.067 38.6666 406.267 38.6666 419.867C38.6666 445.6 63.2 477.333 115.467 519.6C126 528 134.667 535.467 134.667 536C134.667 536.667 132 547.467 128.667 560.267C121.733 587.333 115.733 616.933 112.533 639.467L110.267 655.733L100.8 659.333C56 676.533 12 712.4 3.33331 738.8C1.33331 744.533 1.33331 745.867 2.79998 746.8C4.13331 747.6 4.26665 748 3.06665 748C0.399979 748 0.933313 750.533 5.33331 759.733C18.5333 787.6 57.8666 818.667 100.933 835.333L110.4 839.067L111.333 845.867C114.533 871.733 124 917.067 132 945.6L135.6 958.8L115.867 974.8C33.0666 1041.73 18.1333 1082.93 65.0666 1114.27C88.9333 1130.27 124 1142.53 205.333 1163.2L239.333 1171.87L251.2 1187.6C294.533 1245.07 342.933 1293.6 399.733 1336.27C422.267 1353.2 452.4 1373.47 453.333 1372.13C455.333 1369.07 496.667 1347.33 522 1336.13C530.8 1332.13 538.267 1328.8 538.533 1328.53C538.8 1328.27 533.467 1322.27 526.667 1315.07C500.4 1287.2 458 1233.07 461.733 1232.27C462.667 1232.13 465.6 1232.67 468.267 1233.6C472 1234.93 475.867 1239.07 487.067 1254C501.333 1273.07 518.267 1293.07 537.067 1313.33L547.733 1324.67L554.133 1322.27C579.2 1313.07 619.467 1300.53 642 1294.93C677.2 1286.13 678.933 1285.87 691.333 1288.8L701.467 1291.2L677.067 1296.13C639.467 1303.6 595.733 1316 565.6 1327.73L555.733 1331.47L566.267 1341.33C621.2 1392.53 697.333 1436.93 774 1462C790 1467.33 832.8 1478.67 836.533 1478.67C837.733 1478.67 838 1461.07 837.733 1401.2L837.2 1323.73L840.267 1324.53C842 1324.93 844.133 1325.33 845.067 1325.33C846.267 1325.33 846.667 1341.6 846.667 1402C846.667 1454.13 847.067 1478.67 848 1478.67C848.8 1478.67 857.067 1476.8 866.4 1474.53C933.867 1458 1000.13 1428.27 1055.87 1389.2C1070.13 1379.2 1071.47 1378.53 1076.27 1379.33C1079.07 1379.87 1081.33 1380.67 1081.33 1381.07C1081.33 1381.6 1074.8 1386.53 1066.93 1392.27C1007.73 1434.53 945.6 1463.2 870 1483.07C865.867 1484.13 891.867 1482.67 914.667 1480.53C999.467 1472.4 1082.13 1449.33 1161.33 1411.73L1179.33 1403.2L1198.67 1407.6C1305.33 1431.87 1558 1487.2 1575.33 1490C1579.47 1490.67 1574 1488.93 1506.67 1467.07C1442.8 1446.53 1379.47 1423.6 1314 1397.33C1285.73 1386 1242.4 1368.13 1241.73 1367.47C1241.47 1367.33 1247.47 1362.93 1255.07 1357.87C1294.67 1331.07 1325.6 1305.33 1363.47 1267.47C1400.93 1230 1426 1200 1453.33 1160C1466.27 1141.07 1487.87 1104.8 1486.93 1103.73C1485.87 1102.8 1440.67 1090.13 1416.67 1084.13C1385.87 1076.4 1320 1062.27 1309.6 1061.07C1306.8 1060.67 1305.87 1062.53 1298.8 1080.67C1263.73 1170.93 1213.6 1252.67 1155.73 1313.87L1145.73 1324.53L1141.6 1322.8L1137.33 1321.07L1147.07 1310.4C1209.87 1241.73 1254.8 1168.8 1290.27 1078.13C1294.27 1068 1297.07 1059.33 1296.67 1058.93C1295.73 1057.87 1268.27 1052.93 1232.27 1047.47C1130.27 1031.6 1005.6 1020.4 904 1018C886.8 1017.6 866.8 1016.93 859.733 1016.53L846.667 1015.87V1088.13V1160.4L842.4 1157.07L838 1153.6L837.6 1084.67L837.333 1015.6L789.6 1016.4C763.467 1016.93 727.067 1018 708.933 1018.8L675.733 1020.4L672.267 1016.93C670.4 1014.93 669.067 1013.07 669.467 1012.8C671.067 1011.07 719.333 1009.07 775.733 1008.4L837.333 1007.6V899.2V790.667H842H846.667V899.067V1007.6L886.4 1008.53C1014.13 1011.33 1142.4 1023.2 1259.33 1042.8C1276.93 1045.87 1293.47 1048.53 1296.27 1048.93L1301.07 1049.6L1307.33 1030C1327.6 965.867 1343.33 886.4 1347.33 828C1348.53 811.333 1348.67 810.667 1353.47 810.667C1358.13 810.667 1358.27 810.8 1355.33 840.133C1349.6 897.6 1338.4 955.867 1322.67 1009.73C1318.27 1024.53 1313.6 1040 1312.13 1044.13L1309.6 1051.6L1334.4 1056.53C1376.93 1065.07 1443.87 1081.33 1479.07 1091.73L1492 1095.6L1496.67 1087.47C1502.53 1076.8 1514.53 1051.33 1522.8 1031.73C1547.47 973.2 1565.73 905.733 1573.87 842.8C1574.93 834.533 1576 827.467 1576.27 827.2C1576.53 826.933 1584 827.333 1592.67 828C1601.47 828.8 1642 831.733 1682.67 834.533C1747.73 839.2 1771.33 840.667 1825.33 843.333L1838 843.867L1809.33 837.2C1789.87 832.667 1764 824.933 1728.67 813.333C1672.27 794.667 1627.87 781.467 1585.73 770.667L1580 769.2V747.333V725.467L1585.73 724C1627.73 713.2 1672.13 700 1728.67 681.333C1757.33 672 1788.8 662.4 1798.67 660.133C1808.53 657.867 1821.47 654.8 1827.33 653.333L1838 650.8L1826 651.333C1819.47 651.733 1801.07 652.667 1785.33 653.467C1760.13 654.667 1637.2 663.067 1592.67 666.667C1584 667.333 1576.67 667.733 1576.4 667.467C1576.13 667.333 1575.07 660.4 1574 652.133C1562.93 568.4 1540.13 493.733 1502.4 417.6C1493.07 398.8 1489.73 393.2 1488.13 393.734C1438.4 408 1374.53 423.734 1328.93 432.8C1316 435.334 1310.67 436.933 1311.2 438C1313.73 444.667 1326.13 487.067 1330.53 504C1343.73 554.8 1355.73 630.4 1357.6 674L1358 683.333L1353.87 683.733L1349.87 684.133L1347.6 658.4C1342.53 602.533 1335.6 560.8 1322.53 509.333C1315.47 480.933 1303.6 441.734 1301.6 439.734C1300.8 438.934 1288.53 440.4 1268.53 443.867C1148.4 464.4 1014.27 477.067 890.4 479.6L846.667 480.4V592.267V704H842H837.333V592.933V481.733L791.067 480.933C736.133 479.867 677.067 477.333 675.6 476.133C675.067 475.6 676.4 473.6 678.4 471.6L682.267 468L705.467 469.333C718.267 470.133 753.067 471.067 783.067 471.6L837.333 472.4V406.533V340.533L841.067 338.4L844.933 336.133L845.733 359.067C846.267 371.733 846.667 402.267 846.667 426.933V472H850.4C852.4 472 873.2 471.333 896.667 470.667C1027.07 466.667 1140.4 456 1258 436.667C1281.6 432.8 1297.33 429.867 1298 429.067C1299.33 427.733 1275.47 371.733 1262.13 344.667C1231.07 282.267 1197.07 232.267 1153.87 185.734L1141.2 172.133L1145.2 170L1149.2 168L1158.53 177.6C1201.87 223.2 1241.6 281.733 1273.47 347.333C1285.2 371.467 1306.67 422.8 1306.67 426.667C1306.67 427.6 1308 428 1310.4 427.467C1350.93 419.2 1379.07 412.933 1407.33 406C1439.73 398 1483.6 386.133 1484.8 384.933C1485.47 384.267 1462.8 347.067 1452.4 332C1427.6 296 1400.93 263.6 1371.47 233.467C1334.8 196.133 1303.6 169.467 1263.2 141.2L1242.53 126.8L1247.6 124.667C1353.07 80.0002 1428.8 52.2668 1562.67 9.4668C1577.07 4.93346 1581.47 2.93347 1572.67 4.93347ZM1449.2 39.2002C1448.93 39.4669 1438.13 43.4668 1425.33 48.0001C1258 107.467 1085.2 185.733 948.133 264.4C878.133 304.4 799.6 356.4 759.2 389.467C750.133 396.8 749.067 397.333 734.533 400.667C686.8 411.6 626.533 430.8 575.333 451.333C547.867 462.267 511.067 479.067 512.933 479.6C514.133 480 526.933 477.733 594 464.667C630.133 457.733 662.133 452.533 678 451.2L688.667 450.267L677.333 462.533C655.6 485.867 638.267 507.467 625.2 527.2C617.867 538 612 547.467 612 548C612 548.533 603.467 550.267 593.067 551.867C551.6 558.267 510.533 569.867 486.933 582C472.8 589.2 464 594.533 466.4 594.667C467.467 594.667 480.4 593.467 495.067 592C542.8 587.333 580.667 585.6 590.267 587.467L594.267 588.267L592.267 597.067C589.733 608.8 589.467 637.067 591.867 646.667C594.4 656.933 600.267 668.933 606 675.6C641.867 717.6 875.6 722.533 1342.67 691.333C1381.2 688.667 1453.2 683.6 1502.67 680C1588.4 673.733 1725.6 663.733 1751.33 662C1758 661.467 1762.93 661.6 1762.4 662.133C1760.93 663.467 1700 684 1671.33 692.8C1637.73 703.067 1583.33 717.867 1529.73 731.2C1504.53 737.467 1481.47 743.733 1478.4 744.933L1472.8 747.2L1478 749.467C1480.93 750.8 1504.13 757.067 1529.33 763.333C1583.33 776.8 1637.73 791.6 1671.33 801.867C1700 810.667 1760.93 831.2 1762.4 832.533C1762.93 833.067 1758 833.2 1751.33 832.667C1736.13 831.6 1579.47 820.267 1484.67 813.333C1071.73 783.2 834.4 776.133 703.333 790C659.333 794.667 628.8 802.267 613.733 812.4C593.467 826 584.8 861.2 592.533 898.267L594.267 906.4L590.267 907.2C580.667 909.067 542.8 907.333 495.067 902.667C480.4 901.2 467.467 900 466.4 900C464 900.133 472.8 905.467 486.933 912.667C510.533 924.8 551.6 936.4 593.067 942.8C603.467 944.4 612 946.133 612 946.667C612 947.2 617.867 956.667 625.2 967.467C638.267 987.2 655.6 1008.8 677.333 1032.13L688.667 1044.4L678 1043.47C672.133 1042.93 658 1041.07 646.667 1039.33C626.8 1036.27 615.467 1034.13 546.133 1020.8C528.533 1017.33 513.6 1014.8 512.933 1015.07C511.067 1015.6 547.6 1032.27 575.333 1043.33C626.533 1063.87 686.8 1083.07 734.533 1094C749.067 1097.33 750.133 1097.87 759.2 1105.2C800.267 1138.8 881.067 1192.13 952.667 1232.93C1088.27 1310.4 1272.67 1393.47 1432.93 1449.47C1442 1452.53 1449.07 1455.33 1448.8 1455.73C1447.07 1457.33 1137.47 1387.2 904.667 1332.53C636.8 1269.6 475.333 1229.47 400.267 1207.33C354.4 1193.87 336.267 1189.07 252 1167.87C208.4 1156.93 162.133 1144.93 149.333 1141.2C64.8 1116.8 36.4 1094.27 48 1060.67C52.2666 1048.27 64.4 1031.47 81.3333 1014.67C99.4666 996.533 114 984.267 149.333 957.333C182.267 932.267 193.733 922.667 208.267 908.4C222.667 894.4 228.133 886 229.067 877.467C230.4 862.933 220.8 857.467 178.133 848.533C131.467 838.8 108.267 832 86 821.467C53.0666 805.867 22.5333 779.6 11.7333 757.6C7.73331 749.467 7.59998 748.8 9.19998 742.933C12.4 730.533 25.8666 714.133 44.6666 699.333C78.9333 672.533 106 661.333 166.667 648.667C220.4 637.467 230.533 632.4 229.067 617.2C227.467 601.733 207.467 581.6 149.333 537.333C114.133 510.533 99.4666 498.133 81.3333 480C32.5333 431.333 33.6 402.133 85.2 376.667C111.867 363.467 139.2 355.2 245.333 328.533C341.067 304.4 347.467 302.667 413.333 283.467C526.8 250.533 1018.93 133.2 1360 57.8668C1401.47 48.8002 1437.47 40.8002 1440 40.1335C1444.93 38.8002 1450.13 38.4002 1449.2 39.2002ZM577.867 459.867C578.667 461.067 569.333 463.067 568.267 462C567.6 461.333 573.067 458.934 575.6 458.8C576.4 458.667 577.467 459.2 577.867 459.867Z" fill="#007BC5"/>
<path d="M1449.2 39.2002C1448.93 39.4669 1438.13 43.4668 1425.33 48.0001C1258 107.467 1085.2 185.733 948.133 264.4C878.133 304.4 799.6 356.4 759.2 389.467C750.133 396.8 749.067 397.333 734.533 400.667C686.8 411.6 626.533 430.8 575.333 451.333C547.867 462.267 511.067 479.067 512.933 479.6C514.133 480 526.933 477.733 594 464.667C630.133 457.733 662.133 452.533 678 451.2L688.667 450.267L677.333 462.533C655.6 485.867 638.267 507.467 625.2 527.2C617.867 538 612 547.467 612 548C612 548.533 603.467 550.267 593.067 551.867C551.6 558.267 510.533 569.867 486.933 582C472.8 589.2 464 594.533 466.4 594.667C467.467 594.667 480.4 593.467 495.067 592C542.8 587.333 580.667 585.6 590.267 587.467L594.267 588.267L592.267 597.067C589.733 608.8 589.467 637.067 591.867 646.667C594.4 656.933 600.267 668.933 606 675.6C641.867 717.6 875.6 722.533 1342.67 691.333C1381.2 688.667 1453.2 683.6 1502.67 680C1588.4 673.733 1725.6 663.733 1751.33 662C1758 661.467 1762.93 661.6 1762.4 662.133C1760.93 663.467 1700 684 1671.33 692.8C1637.73 703.067 1583.33 717.867 1529.73 731.2C1504.53 737.467 1481.47 743.733 1478.4 744.933L1472.8 747.2L1478 749.467C1480.93 750.8 1504.13 757.067 1529.33 763.333C1583.33 776.8 1637.73 791.6 1671.33 801.867C1700 810.667 1760.93 831.2 1762.4 832.533C1762.93 833.067 1758 833.2 1751.33 832.667C1736.13 831.6 1579.47 820.267 1484.67 813.333C1071.73 783.2 834.4 776.133 703.333 790C659.333 794.667 628.8 802.267 613.733 812.4C593.467 826 584.8 861.2 592.533 898.267L594.267 906.4L590.267 907.2C580.667 909.067 542.8 907.333 495.067 902.667C480.4 901.2 467.467 900 466.4 900C464 900.133 472.8 905.467 486.933 912.667C510.533 924.8 551.6 936.4 593.067 942.8C603.467 944.4 612 946.133 612 946.667C612 947.2 617.867 956.667 625.2 967.467C638.267 987.2 655.6 1008.8 677.333 1032.13L688.667 1044.4L678 1043.47C672.133 1042.93 658 1041.07 646.667 1039.33C626.8 1036.27 615.467 1034.13 546.133 1020.8C528.533 1017.33 513.6 1014.8 512.933 1015.07C511.067 1015.6 547.6 1032.27 575.333 1043.33C626.533 1063.87 686.8 1083.07 734.533 1094C749.067 1097.33 750.133 1097.87 759.2 1105.2C800.267 1138.8 881.067 1192.13 952.667 1232.93C1088.27 1310.4 1272.67 1393.47 1432.93 1449.47C1442 1452.53 1449.07 1455.33 1448.8 1455.73C1447.07 1457.33 1137.47 1387.2 904.667 1332.53C636.8 1269.6 475.333 1229.47 400.267 1207.33C354.4 1193.87 336.267 1189.07 252 1167.87C208.4 1156.93 162.133 1144.93 149.333 1141.2C64.8 1116.8 36.4 1094.27 48 1060.67C52.2666 1048.27 64.4 1031.47 81.3333 1014.67C99.4666 996.533 114 984.267 149.333 957.333C182.267 932.267 193.733 922.667 208.267 908.4C222.667 894.4 228.133 886 229.067 877.467C230.4 862.933 220.8 857.467 178.133 848.533C131.467 838.8 108.267 832 86 821.467C53.0666 805.867 22.5333 779.6 11.7333 757.6C7.73331 749.467 7.59998 748.8 9.19998 742.933C12.4 730.533 25.8666 714.133 44.6666 699.333C78.9333 672.533 106 661.333 166.667 648.667C220.4 637.467 230.533 632.4 229.067 617.2C227.467 601.733 207.467 581.6 149.333 537.333C114.133 510.533 99.4666 498.133 81.3333 480C32.5333 431.333 33.6 402.133 85.2 376.667C111.867 363.467 139.2 355.2 245.333 328.533C341.067 304.4 347.467 302.667 413.333 283.467C526.8 250.533 1018.93 133.2 1360 57.8668C1401.47 48.8002 1437.47 40.8002 1440 40.1335C1444.93 38.8002 1450.13 38.4002 1449.2 39.2002Z" fill="white"/>
<path d="M800.665 10.2668C796.265 10.5335 783.065 11.6002 771.332 12.8002C669.732 22.6668 573.599 52.4002 485.065 101.733C474.132 107.733 465.332 112.933 465.332 113.333C465.332 114.933 503.599 134.667 524.532 144L545.599 153.333L554.265 145.733C628.132 80.1335 703.865 39.0668 795.599 14.8002C806.399 11.8668 813.865 9.60016 811.999 9.73349C810.132 9.73349 805.065 10.0002 800.665 10.2668Z" fill="#007BC5"/>
<path d="M520.668 1346.53C498.401 1356.67 466.268 1373.47 462.934 1376.53C461.601 1377.87 464.934 1380.27 478.934 1388.27C561.734 1435.6 654.934 1466.53 752.001 1478.53C772.801 1481.07 814.668 1484.53 815.468 1483.6C815.734 1483.47 811.601 1482.13 806.268 1480.8C716.001 1457.87 630.134 1411.33 558.534 1346.4C552.268 1340.67 546.268 1336 545.201 1336C544.134 1336.13 533.201 1340.8 520.668 1346.53Z" fill="#007BC5"/>
</svg>
